<mxfile host="app.diagrams.net" modified="2020-07-02T03:20:36.208Z" agent="5.0 (Windows NT 10.0; WOW64) AppleWebKit/537.36 (KHTML, like Gecko) Chrome/73.0.3683.86 Safari/537.36" etag="ulOJ-r4QX7L2PB7trpFf" version="13.3.6" type="github" pages="2">
  <diagram id="C5RBs43oDa-KdzZeNtuy" name="新建">
    <mxGraphModel dx="1182" dy="764" grid="1" gridSize="10" guides="1" tooltips="1" connect="1" arrows="1" fold="1" page="1" pageScale="1" pageWidth="827" pageHeight="1169" math="0" shadow="0">
      <root>
        <mxCell id="WIyWlLk6GJQsqaUBKTNV-0" />
        <mxCell id="WIyWlLk6GJQsqaUBKTNV-1" parent="WIyWlLk6GJQsqaUBKTNV-0" />
        <mxCell id="kqBpJYi3eXGYKK_GiKWX-6" style="edgeStyle=orthogonalEdgeStyle;rounded=0;orthogonalLoop=1;jettySize=auto;html=1;exitX=0.5;exitY=1;exitDx=0;exitDy=0;" edge="1" parent="WIyWlLk6GJQsqaUBKTNV-1" source="kqBpJYi3eXGYKK_GiKWX-0" target="kqBpJYi3eXGYKK_GiKWX-5">
          <mxGeometry relative="1" as="geometry" />
        </mxCell>
        <mxCell id="kqBpJYi3eXGYKK_GiKWX-0" value="开始" style="ellipse;whiteSpace=wrap;html=1;" vertex="1" parent="WIyWlLk6GJQsqaUBKTNV-1">
          <mxGeometry x="210" y="50" width="120" height="50" as="geometry" />
        </mxCell>
        <mxCell id="kqBpJYi3eXGYKK_GiKWX-8" style="edgeStyle=orthogonalEdgeStyle;rounded=0;orthogonalLoop=1;jettySize=auto;html=1;exitX=0.5;exitY=1;exitDx=0;exitDy=0;entryX=0.5;entryY=0;entryDx=0;entryDy=0;" edge="1" parent="WIyWlLk6GJQsqaUBKTNV-1" source="kqBpJYi3eXGYKK_GiKWX-5" target="kqBpJYi3eXGYKK_GiKWX-7">
          <mxGeometry relative="1" as="geometry" />
        </mxCell>
        <mxCell id="kqBpJYi3eXGYKK_GiKWX-23" style="edgeStyle=orthogonalEdgeStyle;rounded=0;orthogonalLoop=1;jettySize=auto;html=1;entryX=1;entryY=0.5;entryDx=0;entryDy=0;" edge="1" parent="WIyWlLk6GJQsqaUBKTNV-1" source="kqBpJYi3eXGYKK_GiKWX-5" target="kqBpJYi3eXGYKK_GiKWX-16">
          <mxGeometry relative="1" as="geometry">
            <Array as="points">
              <mxPoint x="430" y="190" />
              <mxPoint x="430" y="755" />
            </Array>
          </mxGeometry>
        </mxCell>
        <mxCell id="kqBpJYi3eXGYKK_GiKWX-5" value="是否幂等" style="rhombus;whiteSpace=wrap;html=1;" vertex="1" parent="WIyWlLk6GJQsqaUBKTNV-1">
          <mxGeometry x="230" y="150" width="80" height="80" as="geometry" />
        </mxCell>
        <mxCell id="kqBpJYi3eXGYKK_GiKWX-13" style="edgeStyle=orthogonalEdgeStyle;rounded=0;orthogonalLoop=1;jettySize=auto;html=1;exitX=0.5;exitY=1;exitDx=0;exitDy=0;entryX=0.5;entryY=0;entryDx=0;entryDy=0;" edge="1" parent="WIyWlLk6GJQsqaUBKTNV-1" source="kqBpJYi3eXGYKK_GiKWX-7" target="kqBpJYi3eXGYKK_GiKWX-12">
          <mxGeometry relative="1" as="geometry" />
        </mxCell>
        <mxCell id="kqBpJYi3eXGYKK_GiKWX-7" value="新建server，group，vs等" style="rounded=1;whiteSpace=wrap;html=1;" vertex="1" parent="WIyWlLk6GJQsqaUBKTNV-1">
          <mxGeometry x="210" y="300" width="120" height="60" as="geometry" />
        </mxCell>
        <mxCell id="kqBpJYi3eXGYKK_GiKWX-9" value="N" style="text;html=1;align=center;verticalAlign=middle;resizable=0;points=[];autosize=1;" vertex="1" parent="WIyWlLk6GJQsqaUBKTNV-1">
          <mxGeometry x="273" y="251" width="20" height="20" as="geometry" />
        </mxCell>
        <mxCell id="kqBpJYi3eXGYKK_GiKWX-15" style="edgeStyle=orthogonalEdgeStyle;rounded=0;orthogonalLoop=1;jettySize=auto;html=1;" edge="1" parent="WIyWlLk6GJQsqaUBKTNV-1" source="kqBpJYi3eXGYKK_GiKWX-12" target="kqBpJYi3eXGYKK_GiKWX-14">
          <mxGeometry relative="1" as="geometry" />
        </mxCell>
        <mxCell id="kqBpJYi3eXGYKK_GiKWX-19" style="edgeStyle=orthogonalEdgeStyle;rounded=0;orthogonalLoop=1;jettySize=auto;html=1;entryX=1;entryY=0.5;entryDx=0;entryDy=0;" edge="1" parent="WIyWlLk6GJQsqaUBKTNV-1" source="kqBpJYi3eXGYKK_GiKWX-12" target="kqBpJYi3eXGYKK_GiKWX-16">
          <mxGeometry relative="1" as="geometry">
            <Array as="points">
              <mxPoint x="430" y="450" />
              <mxPoint x="430" y="755" />
            </Array>
          </mxGeometry>
        </mxCell>
        <mxCell id="kqBpJYi3eXGYKK_GiKWX-12" value="是否成功" style="rhombus;whiteSpace=wrap;html=1;" vertex="1" parent="WIyWlLk6GJQsqaUBKTNV-1">
          <mxGeometry x="230" y="420" width="80" height="60" as="geometry" />
        </mxCell>
        <mxCell id="kqBpJYi3eXGYKK_GiKWX-25" style="edgeStyle=orthogonalEdgeStyle;rounded=0;orthogonalLoop=1;jettySize=auto;html=1;exitX=0.5;exitY=1;exitDx=0;exitDy=0;" edge="1" parent="WIyWlLk6GJQsqaUBKTNV-1" source="kqBpJYi3eXGYKK_GiKWX-14" target="kqBpJYi3eXGYKK_GiKWX-16">
          <mxGeometry relative="1" as="geometry" />
        </mxCell>
        <mxCell id="kqBpJYi3eXGYKK_GiKWX-14" value="数据落地db" style="rounded=1;whiteSpace=wrap;html=1;" vertex="1" parent="WIyWlLk6GJQsqaUBKTNV-1">
          <mxGeometry x="210" y="570" width="120" height="60" as="geometry" />
        </mxCell>
        <mxCell id="kqBpJYi3eXGYKK_GiKWX-16" value="结束" style="ellipse;whiteSpace=wrap;html=1;" vertex="1" parent="WIyWlLk6GJQsqaUBKTNV-1">
          <mxGeometry x="210" y="730" width="120" height="50" as="geometry" />
        </mxCell>
        <mxCell id="kqBpJYi3eXGYKK_GiKWX-18" value="Y" style="text;html=1;align=center;verticalAlign=middle;resizable=0;points=[];autosize=1;" vertex="1" parent="WIyWlLk6GJQsqaUBKTNV-1">
          <mxGeometry x="283" y="510" width="20" height="20" as="geometry" />
        </mxCell>
        <mxCell id="kqBpJYi3eXGYKK_GiKWX-22" value="N" style="text;html=1;align=center;verticalAlign=middle;resizable=0;points=[];autosize=1;" vertex="1" parent="WIyWlLk6GJQsqaUBKTNV-1">
          <mxGeometry x="452" y="565" width="20" height="20" as="geometry" />
        </mxCell>
        <mxCell id="kqBpJYi3eXGYKK_GiKWX-24" value="Y" style="text;html=1;align=center;verticalAlign=middle;resizable=0;points=[];autosize=1;" vertex="1" parent="WIyWlLk6GJQsqaUBKTNV-1">
          <mxGeometry x="448" y="270" width="20" height="20" as="geometry" />
        </mxCell>
      </root>
    </mxGraphModel>
  </diagram>
  <diagram id="C0R3x-KTIH-HuvMbvUGK" name="扩缩容">
    <mxGraphModel dx="1182" dy="764" grid="1" gridSize="10" guides="1" tooltips="1" connect="1" arrows="1" fold="1" page="1" pageScale="1" pageWidth="827" pageHeight="1169" math="0" shadow="0">
      <root>
        <mxCell id="y5hxgq7UcXOCzc8j-vYZ-0" />
        <mxCell id="y5hxgq7UcXOCzc8j-vYZ-1" parent="y5hxgq7UcXOCzc8j-vYZ-0" />
      </root>
    </mxGraphModel>
  </diagram>
</mxfile>
